# xmcd
#
# Track frame offsets:
#	150
#	13460
#	23926
#	37915
#	49605
#	61060
#	71998
#	83130
#	94023
#	106628
#	119164
#	131422
#	143205
#	155734
#	169375
#	182003
#	194555
#	207801
#
# Disc length: 3146 seconds
#
# Revision: 0
# Processed by: cddbd v1.5.2PL0 Copyright (c) Steve Scherf et al.
# Submitted via: EasyCDDAExtractor 2010.6.0.0
#
DISCID=030c4812
DTITLE=Kemp Wayne - Image Of Me
DYEAR=1900
DGENRE=
TTITLE0=We're Having Sleeping Memory
TTITLE1=She Leaves The Jukebox Smoking
TTITLE2=You Picked A Bad Time To Come On Back Maxine
TTITLE3=She Won't Live It Down
TTITLE4=It's Enough To Make Me Stay
TTITLE5=Your Memory Leads Me Back
TTITLE6=Touch Me With Your Eye
TTITLE7=Did We Have To Come This Far
TTITLE8=Play Me A Cheating Song
TTITLE9=Rich Man Has No Friends
TTITLE10=I'll Leave This World Loving You
TTITLE11=Harlan Couny Line
TTITLE12=Hurt Me Again
TTITLE13=Happy Birthday Darling
TTITLE14=Image Of Me
TTITLE15=Walking Around Babbling Incoherently
TTITLE16=Making It Back To Macon
TTITLE17=Rednecks Over Thirty
EXTD=
EXTT0=
EXTT1=
EXTT2=
EXTT3=
EXTT4=
EXTT5=
EXTT6=
EXTT7=
EXTT8=
EXTT9=
EXTT10=
EXTT11=
EXTT12=
EXTT13=
EXTT14=
EXTT15=
EXTT16=
EXTT17=
PLAYORDER=
